<svg width="40" height="40" viewBox="0 0 40 40" fill="none" xmlns="http://www.w3.org/2000/svg">
<circle cx="19.7248" cy="20.2981" r="19.3064" fill="#34A853"/>
<path d="M28.4095 27.3381L23.8595 22.7881C24.7408 21.6994 25.2715 20.3161 25.2715 18.8094C25.2715 15.3174 22.4302 12.4761 18.9382 12.4761C15.4463 12.4761 12.605 15.3174 12.605 18.8094C12.605 22.3014 15.4463 25.1427 18.9383 25.1427C20.4449 25.1427 21.8282 24.6121 22.9169 23.7307L27.4668 28.2807C27.5968 28.4107 27.7675 28.4761 27.9382 28.4761C28.1088 28.4761 28.2795 28.4107 28.4095 28.2807C28.6701 28.0201 28.6701 27.5987 28.4095 27.3381ZM18.9383 23.8094C16.1809 23.8094 13.9383 21.5667 13.9383 18.8094C13.9383 16.052 16.1809 13.8094 18.9383 13.8094C21.6956 13.8094 23.9382 16.052 23.9382 18.8094C23.9382 21.5667 21.6955 23.8094 18.9383 23.8094Z" fill="white"/>
</svg>
